<svg style="position: absolute; width: 0; height: 0; overflow: hidden;" version="1.1" xmlns="http://www.w3.org/2000/svg" xmlns:xlink="http://www.w3.org/1999/xlink">
<defs>
<symbol id="icon-facebook" viewBox="0 0 32 32">
<title>facebook</title>
<path d="M19 6h5v-6h-5c-3.86 0-7 3.14-7 7v3h-4v6h4v16h6v-16h5l1-6h-6v-3c0-0.542 0.458-1 1-1z"></path>
</symbol>
<symbol id="icon-facebook-square" viewBox="0 0 32 32">
<title>facebook-square</title>
<path d="M30.234 0h-28.468c-0.976 0-1.766 0.79-1.766 1.766v28.468c0 0.976 0.79 1.766 1.766 1.766h15.326v-12.392h-4.172v-4.828h4.172v-3.566c0-4.132 2.524-6.38 6.212-6.38 1.766 0 3.284 0.128 3.726 0.188v4.32h-2.56c-2 0-2.39 0.96-2.39 2.36v3.080h4.78l-0.62 4.84h-4.16v12.378h8.154c0.976 0 1.766-0.79 1.766-1.766v-28.468c0-0.976-0.79-1.766-1.766-1.766z"></path>
</symbol>
<symbol id="icon-tumblr" viewBox="0 0 32 32">
<title>tumblr</title>
<path d="M19.416 32c-6.792 0-9.374-5.008-9.374-8.548v-10.456h-3.222v-4.132c4.84-1.75 6.016-6.128 6.28-8.624 0.020-0.172 0.154-0.24 0.23-0.24h4.69v8.152h6.4v4.844h-6.426v9.96c0.020 1.334 0.5 3.16 2.944 3.16h0.12c0.84-0.024 1.98-0.272 2.58-0.556l1.54 4.566c-0.58 0.848-3.2 1.832-5.54 1.872h-0.238z"></path>
</symbol>
<symbol id="icon-twitter" viewBox="0 0 32 32">
<title>twitter</title>
<path d="M32 6.076c-1.18 0.52-2.44 0.874-3.77 1.034 1.354-0.814 2.396-2.1 2.886-3.632-1.268 0.74-2.674 1.28-4.17 1.58-1.196-1.28-2.9-2.080-4.792-2.080-3.624 0-6.564 2.94-6.564 6.56 0 0.52 0.060 1.020 0.17 1.5-5.456-0.26-10.294-2.88-13.532-6.84-0.568 0.962-0.888 2.082-0.888 3.302 0 2.28 1.16 4.286 2.92 5.464-1.076-0.034-2.090-0.33-2.974-0.82v0.080c0 3.18 2.26 5.836 5.266 6.44-0.552 0.148-1.132 0.228-1.73 0.228-0.42 0-0.82-0.040-1.22-0.116 0.84 2.608 3.26 4.506 6.14 4.56-2.24 1.76-5.080 2.808-8.14 2.808-0.52 0-1.040-0.030-1.56-0.090 2.92 1.86 6.36 2.948 10.080 2.948 12.080 0 18.68-10 18.68-18.66 0-0.28 0-0.56-0.020-0.84 1.28-0.92 2.4-2.080 3.28-3.4z"></path>
</symbol>
<symbol id="icon-googleplus" viewBox="0 0 32 32">
<title>googleplus</title>
<path d="M10.18 14.546v3.49h5.78c-0.232 1.5-1.746 4.394-5.774 4.394-3.474 0-6.31-2.88-6.31-6.43s2.83-6.43 6.304-6.43c1.98 0 3.304 0.844 4.060 1.572l2.764-2.66c-1.774-1.66-4.074-2.66-6.82-2.66-5.634-0.002-10.184 4.558-10.184 10.178s4.552 10.18 10.18 10.18c5.88 0 9.776-4.13 9.776-9.948 0-0.668-0.072-1.18-0.16-1.686h-9.616zM32 14.546h-2.91v-2.91h-2.91v2.91h-2.908v2.908h2.91v2.91h2.92v-2.91h2.898z"></path>
</symbol>
<symbol id="icon-behance" viewBox="0 0 32 32">
<title>behance</title>
<path d="M9.28 5.974c0.94 0 1.792 0.080 2.568 0.25 0.772 0.164 1.43 0.436 1.988 0.812 0.548 0.374 0.98 0.872 1.284 1.5 0.3 0.62 0.452 1.394 0.452 2.31 0 0.99-0.226 1.82-0.676 2.48-0.452 0.66-1.12 1.204-2.008 1.624 1.212 0.348 2.108 0.96 2.704 1.832 0.6 0.88 0.89 1.94 0.89 3.16 0 1-0.18 1.86-0.56 2.58-0.38 0.74-0.9 1.34-1.56 1.8-0.64 0.46-1.4 0.8-2.24 1.020-0.82 0.22-1.68 0.34-2.56 0.34h-9.562v-19.702h9.28zM22.66 22.24c0.586 0.572 1.434 0.86 2.532 0.86 0.788 0 1.472-0.2 2.044-0.6 0.568-0.394 0.912-0.82 1.046-1.26h3.46c-0.54 1.714-1.4 2.94-2.54 3.676-1.14 0.74-2.52 1.11-4.12 1.11-1.12 0-2.12-0.18-3.040-0.54-0.9-0.36-1.66-0.87-2.3-1.532-0.62-0.664-1.1-1.452-1.44-2.376-0.34-0.92-0.5-1.94-0.5-3.040 0-1.080 0.18-2.060 0.54-2.98 0.36-0.94 0.86-1.72 1.5-2.4 0.66-0.68 1.42-1.2 2.32-1.6s1.88-0.58 2.98-0.58c1.22 0 2.26 0.22 3.18 0.7 0.9 0.46 1.64 1.1 2.22 1.88 0.6 0.78 1 1.68 1.26 2.7 0.26 1 0.34 2.060 0.28 3.18h-10.282c0 1.12 0.38 2.18 0.96 2.76zM8.96 22.306c0.426 0 0.832-0.040 1.214-0.124 0.388-0.080 0.732-0.22 1.020-0.4 0.292-0.18 0.532-0.44 0.706-0.78 0.174-0.32 0.26-0.76 0.26-1.28 0-1-0.286-1.72-0.854-2.16-0.57-0.42-1.328-0.64-2.26-0.64h-4.712v5.42h4.626zM27.16 14.752c-0.468-0.516-1.256-0.794-2.216-0.794-0.626 0-1.144 0.1-1.56 0.32-0.404 0.2-0.736 0.46-0.99 0.78-0.252 0.32-0.424 0.64-0.524 1-0.1 0.34-0.16 0.66-0.18 0.94h6.37c-0.094-1-0.434-1.74-0.9-2.26zM8.72 13.926c0.768 0 1.404-0.18 1.906-0.552 0.5-0.364 0.74-0.964 0.74-1.79 0-0.46-0.080-0.836-0.24-1.13-0.168-0.294-0.39-0.524-0.668-0.684-0.28-0.168-0.6-0.284-0.96-0.346-0.36-0.070-0.74-0.1-1.12-0.1h-4.058v4.6h4.4zM20.89 7.294h7.98v1.944h-7.98v-1.96z"></path>
</symbol>
<symbol id="icon-instagram" viewBox="0 0 32 32">
<title>instagram</title>
<path d="M16 0c-4.346 0-4.89 0.020-6.596 0.096-1.704 0.080-2.864 0.348-3.884 0.744-1.052 0.408-1.946 0.956-2.834 1.846-0.89 0.888-1.44 1.78-1.846 2.834-0.396 1.020-0.666 2.18-0.744 3.884-0.080 1.706-0.096 2.25-0.096 6.596s0.020 4.89 0.096 6.596c0.080 1.704 0.348 2.866 0.744 3.884 0.408 1.052 0.956 1.946 1.846 2.834 0.888 0.89 1.78 1.44 2.834 1.846 1.020 0.396 2.18 0.666 3.884 0.744 1.706 0.080 2.25 0.096 6.596 0.096s4.89-0.020 6.596-0.096c1.704-0.080 2.866-0.348 3.884-0.744 1.052-0.408 1.946-0.956 2.834-1.846 0.89-0.888 1.44-1.78 1.846-2.834 0.396-1.020 0.666-2.18 0.744-3.884 0.080-1.706 0.096-2.25 0.096-6.596s-0.020-4.89-0.096-6.596c-0.080-1.704-0.348-2.866-0.744-3.884-0.408-1.052-0.956-1.946-1.846-2.834-0.888-0.89-1.78-1.44-2.834-1.846-1.020-0.396-2.18-0.666-3.884-0.744-1.706-0.080-2.25-0.096-6.596-0.096zM16 2.88c4.272 0 4.78 0.020 6.466 0.096 1.56 0.072 2.406 0.332 2.97 0.552 0.748 0.29 1.28 0.636 1.84 1.196s0.906 1.092 1.196 1.84c0.22 0.564 0.48 1.41 0.552 2.97 0.076 1.688 0.094 2.194 0.094 6.466s-0.020 4.78-0.1 6.466c-0.080 1.56-0.34 2.406-0.56 2.97-0.3 0.748-0.64 1.28-1.2 1.84s-1.1 0.906-1.84 1.196c-0.56 0.22-1.42 0.48-2.98 0.552-1.7 0.076-2.2 0.094-6.48 0.094s-4.78-0.020-6.48-0.1c-1.56-0.080-2.42-0.34-2.98-0.56-0.76-0.3-1.28-0.64-1.84-1.2s-0.92-1.1-1.2-1.84c-0.22-0.56-0.48-1.42-0.56-2.98-0.060-1.68-0.080-2.2-0.080-6.46s0.020-4.78 0.080-6.48c0.080-1.56 0.34-2.42 0.56-2.98 0.28-0.76 0.64-1.28 1.2-1.84s1.080-0.92 1.84-1.2c0.56-0.22 1.4-0.48 2.96-0.56 1.7-0.060 2.2-0.080 6.48-0.080zM16 7.784c-4.54 0-8.216 3.68-8.216 8.216 0 4.54 3.68 8.216 8.216 8.216 4.54 0 8.216-3.68 8.216-8.216 0-4.54-3.68-8.216-8.216-8.216zM16 21.334c-2.946 0-5.334-2.388-5.334-5.334s2.388-5.334 5.334-5.334c2.946 0 5.334 2.388 5.334 5.334s-2.388 5.334-5.334 5.334zM26.46 7.46c0 1.060-0.86 1.92-1.92 1.92s-1.92-0.86-1.92-1.92 0.86-1.92 1.92-1.92 1.92 0.86 1.92 1.92z"></path>
</symbol>
<symbol id="icon-dribbble" viewBox="0 0 32 32">
<title>dribbble</title>
<path d="M16 32c-8.82 0-16-7.18-16-16s7.18-16 16-16 16 7.18 16 16-7.18 16-16 16zM29.494 18.19c-0.468-0.148-4.23-1.27-8.514-0.584 1.788 4.912 2.516 8.912 2.656 9.744 3.066-2.074 5.248-5.36 5.86-9.16zM21.34 28.6c-0.204-1.2-1-5.376-2.92-10.36l-0.088 0.028c-7.708 2.686-10.472 8.032-10.72 8.532 2.316 1.81 5.228 2.888 8.388 2.888 1.894 0 3.7-0.388 5.34-1.086zM5.846 25.16c0.31-0.532 4.060-6.74 11.11-9.020 0.18-0.060 0.36-0.112 0.54-0.16-0.346-0.78-0.72-1.556-1.11-2.32-6.826 2.040-13.446 1.954-14.046 1.94l-0.006 0.416c0 3.51 1.33 6.716 3.512 9.14zM2.62 13.22c0.614 0.010 6.244 0.034 12.636-1.664-2.264-4.024-4.706-7.41-5.066-7.904-3.824 1.804-6.68 5.328-7.568 9.57zM12.8 2.736c0.376 0.506 2.86 3.886 5.096 8 4.86-1.82 6.92-4.586 7.164-4.936-2.414-2.146-5.588-3.448-9.060-3.448-1.1 0-2.174 0.132-3.2 0.38zM26.58 7.38c-0.29 0.388-2.58 3.324-7.632 5.388 0.32 0.65 0.62 1.312 0.906 1.98 0.1 0.234 0.2 0.47 0.294 0.704 4.548-0.572 9.066 0.344 9.516 0.44-0.030-3.226-1.18-6.188-3.086-8.514z"></path>
</symbol>
<symbol id="icon-pinterest" viewBox="0 0 32 32">
<title>pinterest</title>
<path d="M16 0c-8.836 0-16 7.164-16 16 0 6.78 4.216 12.57 10.168 14.9-0.14-1.266-0.266-3.208 0.056-4.59 0.292-1.25 1.876-7.954 1.876-7.954s-0.48-0.96-0.48-2.376c0-2.22 1.292-3.886 2.896-3.886 1.366 0 2.024 1.026 2.024 2.254 0 1.374-0.872 3.426-1.324 5.328-0.38 1.594 0.8 2.89 2.37 2.89 2.84 0 5.028-2.996 5.028-7.324 0-3.82-2.752-6.5-6.684-6.5-4.552 0-7.22 3.42-7.22 6.94 0 1.38 0.526 2.86 1.186 3.66 0.132 0.16 0.15 0.3 0.114 0.46-0.12 0.5-0.392 1.6-0.446 1.82-0.070 0.3-0.23 0.36-0.536 0.22-1.996-0.922-3.248-3.842-3.248-6.202 0-5.040 3.668-9.68 10.574-9.68 5.548 0 9.864 3.96 9.864 9.24 0 5.52-3.48 9.96-8.32 9.96-1.62 0-3.14-0.84-3.68-1.84l-1 3.8c-0.36 1.396-1.34 3.14-2 4.2 1.5 0.46 3.080 0.714 4.74 0.714 8.82 0 16-7.16 16-16s-7.18-16-16-16z"></path>
</symbol>
<symbol id="icon-sass" viewBox="0 0 32 32">
<title>sass</title>
<path d="M16 0c8.836 0 16 7.164 16 16s-7.164 16-16 16-16-7.164-16-16 7.164-16 16-16zM12.82 21.33c0.234 0.86 0.208 1.664-0.032 2.39l-0.088 0.24c-0.032 0.080-0.068 0.16-0.104 0.234-0.186 0.386-0.434 0.746-0.74 1.080-0.93 1.012-2.228 1.396-2.786 1.072-0.6-0.348-0.3-1.78 0.78-2.92 1.16-1.224 2.826-2.012 2.826-2.012v-0.004l0.144-0.080zM26.036 6.85c-0.724-2.844-5.436-3.78-9.896-2.194-2.654 0.944-5.526 2.424-7.592 4.356-2.456 2.296-2.848 4.296-2.688 5.132 0.57 2.948 4.61 4.876 6.272 6.306v0.008c-0.49 0.24-4.074 2.040-4.914 3.9-0.9 1.96 0.14 3.36 0.82 3.54 2.1 0.58 4.26-0.48 5.42-2.2 1.12-1.68 1.020-3.84 0.54-4.9 0.66-0.18 1.44-0.26 2.44-0.14 2.8 0.32 3.36 2.080 3.24 2.8s-0.7 1.14-0.9 1.26c-0.2 0.12-0.26 0.16-0.24 0.24 0.020 0.12 0.12 0.12 0.28 0.1 0.22-0.040 1.46-0.6 1.52-1.96 0.060-1.72-1.58-3.64-4.5-3.6-1.2 0.020-1.96 0.12-2.5 0.34-0.040-0.060-0.080-0.1-0.14-0.14-1.8-1.94-5.14-3.3-5-5.88 0.040-0.94 0.38-3.42 6.4-6.42 4.94-2.46 8.88-1.78 9.56-0.28 0.98 2.14-2.1 6.12-7.24 6.7-1.96 0.22-2.98-0.54-3.24-0.82-0.28-0.3-0.32-0.32-0.42-0.26-0.16 0.080-0.060 0.34 0 0.5 0.16 0.4 0.78 1.1 1.86 1.46 0.94 0.3 3.24 0.48 6-0.6 3.1-1.2 5.52-4.54 4.82-7.34z"></path>
</symbol>
<symbol id="icon-github" viewBox="0 0 32 32">
<title>github</title>
<path d="M16 0c-8.84 0-16 7.164-16 16 0 7.070 4.584 13.066 10.94 15.18 0.8 0.15 1.094-0.344 1.094-0.77 0-0.38-0.014-1.386-0.020-2.72-4.452 0.966-5.39-2.146-5.39-2.146-0.728-1.848-1.78-2.34-1.78-2.34-1.45-0.992 0.112-0.972 0.112-0.972 1.606 0.112 2.45 1.648 2.45 1.648 1.428 2.446 3.746 1.74 4.66 1.33 0.144-1.034 0.556-1.74 1.014-2.14-3.554-0.4-7.288-1.776-7.288-7.906 0-1.746 0.62-3.174 1.646-4.294-0.18-0.404-0.72-2.030 0.14-4.234 0 0 1.34-0.43 4.4 1.64 1.28-0.356 2.64-0.532 4-0.54 1.36 0.008 2.72 0.184 4 0.54 3.040-2.070 4.38-1.64 4.38-1.64 0.86 2.204 0.32 3.83 0.16 4.234 1.020 1.12 1.64 2.548 1.64 4.294 0 6.146-3.74 7.5-7.3 7.894 0.56 0.48 1.080 1.46 1.080 2.96 0 2.14-0.020 3.86-0.020 4.38 0 0.42 0.28 0.92 1.1 0.76 6.402-2.098 10.982-8.098 10.982-15.158 0-8.836-7.164-16-16-16z"></path>
</symbol>
<symbol id="icon-html5" viewBox="0 0 28 32">
<title>html5</title>
<path d="M0 0h28l-2.546 28.75-11.486 3.25-11.42-3.25-2.548-28.75zM9.374 13l-0.31-3.624 13.412 0.004 0.308-3.496-17.568-0.004 0.93 10.68h12.168l-0.434 4.568-3.88 1.072-3.94-1.080-0.25-2.812h-3.48l0.44 5.56 7.23 1.932 7.172-1.924 0.992-10.876h-12.79z"></path>
</symbol>
<symbol id="icon-css3" viewBox="0 0 32 32">
<title>css3</title>
<path d="M2 0h28l-2.546 28.75-11.486 3.25-11.42-3.25-2.548-28.75zM24.786 5.884l-17.57-0.004 0.284 3.496 13.5 0.002-0.34 3.622h-8.854l0.318 3.432h8.244l-0.488 4.696-3.88 1.072-3.94-1.078-0.25-2.814h-3.48l0.388 5.14 7.282 2.27 7.164-2.040 1.622-17.794z"></path>
</symbol>
<symbol id="icon-javascript" viewBox="0 0 32 32">
<title>javascript</title>
<path d="M0 0h32v32h-32v-32zM29.38 24.368c-0.234-1.46-1.186-2.686-4.006-3.83-0.98-0.46-2.070-0.78-2.396-1.52-0.12-0.44-0.14-0.68-0.060-0.94 0.2-0.86 1.22-1.12 2.020-0.88 0.52 0.16 1 0.56 1.3 1.2 1.38-0.9 1.38-0.9 2.34-1.5-0.36-0.56-0.54-0.8-0.78-1.040-0.84-0.94-1.96-1.42-3.78-1.38l-0.94 0.12c-0.9 0.22-1.76 0.7-2.28 1.34-1.52 1.72-1.080 4.72 0.76 5.96 1.82 1.36 4.48 1.66 4.82 2.94 0.32 1.56-1.16 2.060-2.62 1.88-1.080-0.24-1.68-0.78-2.34-1.78l-2.44 1.4c0.28 0.64 0.6 0.92 1.080 1.48 2.32 2.34 8.12 2.22 9.16-1.34 0.040-0.12 0.32-0.94 0.1-2.2zM17.4 14.708h-2.996c0 2.584-0.012 5.152-0.012 7.74 0 1.644 0.084 3.152-0.184 3.614-0.44 0.92-1.572 0.8-2.088 0.64-0.528-0.26-0.796-0.62-1.106-1.14-0.084-0.14-0.148-0.26-0.17-0.26l-2.434 1.5c0.406 0.84 1 1.56 1.766 2.020 1.14 0.68 2.672 0.9 4.276 0.54 1.044-0.3 1.944-0.92 2.414-1.88 0.68-1.24 0.536-2.76 0.53-4.46 0.016-2.74 0-5.48 0-8.24z"></path>
</symbol>
</defs>
</svg>
